<?xml version="1.0" encoding="utf-8"?>
<!-- Generator: Adobe Illustrator 19.1.0, SVG Export Plug-In . SVG Version: 6.00 Build 0)  -->
<svg version="1.1" id="圖層_1" xmlns="http://www.w3.org/2000/svg" xmlns:xlink="http://www.w3.org/1999/xlink" x="0px" y="0px"
	 viewBox="0 0 560 560" style="enable-background:new 0 0 560 560;" xml:space="preserve">
<style type="text/css">
	.st0{fill:none;stroke:#FFFFFF;stroke-width:2;stroke-miterlimit:10;}
</style>
<g>
	<g>
		<path class="st0" d="M456.2,268.1L459,237c2.8-31.8-7.2-61.9-28.1-84.7c-20.8-22.7-49.8-35.3-81.6-35.3
			c-30.6,0-59.5,12.2-81.7,31.9c-20.5-20.6-48.1-31.9-78.2-31.9c-62.7,0-118.2,51-123.6,113.6L52.1,388.4h165.6h63.5h164.6l1.7-21.3
			 M217.7,377.8H63.6l12.8-146.3c5-57.3,55.8-104,113.1-104c27.2,0,52.1,10.2,70.6,28.7c-13.1,13.7-23.1,30.1-29,48.3
			c-1.8-3.5-4-6.7-6.6-9.6c-8.7-9.5-21.1-14.8-34.9-14.8c-30.2,0-58,25.6-60.6,55.9l-7.8,89h102.1h4.8h52.9h5.8h90.6l-4.7,52.7
			h-91.4H217.7z M218.4,314.6h-85.8l6.8-77.6c0.6-6.4,2.5-12.4,5.4-18c6.6,8.2,16.5,13,26.8,13c4.8,0,9.6-1,14.2-3.1
			c13.7-6.3,21.3-20.4,19.9-34.6c4.2,1.9,7.9,4.5,11,7.9c6.8,7.4,10,17.5,9,28.5L218.4,314.6z M194.3,191.1
			c3.2,11.1-2.1,23.2-12.9,28.2c-11.2,5.1-24.2,0.7-30.3-9.7c9.5-11.3,23.6-18.8,38.4-18.8C191.2,190.8,192.8,190.9,194.3,191.1z
			 M352.9,191c3.3,11.2-2,23.3-12.9,28.3c-10.9,5-23.5,1-29.8-8.8c9.5-11.8,23.9-19.7,39.1-19.7C350.6,190.8,351.8,190.9,352.9,191z
			 M299.2,237c0.5-6,2.3-11.8,4.9-17.1c6.6,7.6,16.2,12,26.1,12c4.8,0,9.6-1,14.2-3.1c13.9-6.3,21.5-20.8,19.8-35.2
			c4.7,1.9,8.8,4.8,12.2,8.5c6.8,7.4,10,17.5,9,28.5l-7.3,84h-85.8L299.2,237z M437.4,365.2l-1.2,12.7h-53l4.7-52.7h0l8.2-93.6
			c1.2-14-3-26.9-11.7-36.5c-8.7-9.5-21.1-14.8-34.9-14.8c-30.2,0-58,25.6-60.6,55.9l-6.9,78.5h-52.9l7.3-83.1
			c5-57.3,55.8-104,113.1-104c28.8,0,55,11.3,73.8,31.8c18.9,20.6,27.9,47.9,25.4,76.7l-3.3,37.1"/>
	</g>
	<path class="st0" d="M526.6,272.3c-3.1-3-6.9-4.5-11.4-4.5c-6.7,0-15.9,2.8-21.4,16l-17.3,42.6c-0.7,1.9-2.6,3.7-5.7,5.4
		c-3.3,1.8-6.5,2.8-9.5,2.8c-2.8,0-3.5-0.7-3.6-0.7c-0.2-0.3-0.2-0.9-0.2-1.2c0-0.2,0.2-1.8,2.6-7.8l11.8-28.7
		c2.3-5.8,3.4-9.8,3.4-12.7c0-4.5-1.6-8.2-4.7-11.2c-3.1-2.9-6.9-4.4-11.4-4.4c-6.6,0-15.7,2.7-21.3,15.9l-14.4,35.6
		c-3.7,9-5.4,15.7-5.4,20.5c0,8.1,3.1,14.8,9.3,19.9c6,4.9,13.8,7.4,23.2,7.4c3.2,0,6.6-0.5,10.2-1.4l-11.3,31h-17
		c-17.3,0-30.1,2-39.2,6.2c-8,3.7-14.5,9.4-19.4,16.7c-4.9,7.4-7.4,15.6-7.4,24.2c0,12.4,4.6,22.9,13.7,31.3
		c9,8.3,20.2,12.5,33.4,12.5c21.6,0,38.2-10.8,49.4-32c5.5-10.2,9.5-18.7,12-25.4h16.9c7.2,0,13-1.6,17.2-4.8
		c4.5-3.4,6.8-8.3,6.8-14.3c0-5.4-2.5-14.4-18.9-14.4h-8.5l39.3-100.5l1.5-3.4c1.4-3.5,2.1-6.6,2.1-9.4
		C531.3,279.1,529.7,275.3,526.6,272.3z M496.9,404.2c11.6,0,11.6,4.7,11.6,7c0,3.8-1.2,6.4-3.9,8.5c-2.9,2.2-7.2,3.3-12.7,3.3
		h-19.5h-2.7h-20.2h-5.8h-16.8c-25.9,0-31.3,11.4-31.3,21c0,5.1,1.6,9.3,4.9,12.5c3.2,3.2,7.5,4.8,12.7,4.8c6.8,0,13-2.7,18.2-7.9
		c4.6-4.6,9.4-12.1,14.6-22.9h21.1c-2.4,6-5.9,13.3-10.6,22c-10,18.9-24,28.1-42.9,28.1c-11.4,0-20.7-3.5-28.4-10.6
		c-7.6-7-11.3-15.5-11.3-25.9c0-7.2,2.1-13.9,6.2-20.1c4.1-6.2,9.6-11,16.3-14.1c8-3.7,20.1-5.5,36-5.5h19.6h2.6h22.9h5.4H496.9z
		 M437.8,430.4c-4.2,8.3-8.1,14.2-11.6,17.7c-3.8,3.9-8.1,5.8-12.9,5.8c-3.3,0-5.7-0.9-7.6-2.7c-1.8-1.8-2.7-4.1-2.7-7.2
		c0-3.7,0-13.6,23.9-13.6H437.8z M522.4,290l-41.9,106.8h-23.1l16-43.7l-7.8,3.3c-5.4,2.3-10.5,3.4-14.9,3.4
		c-7.7,0-13.9-1.9-18.5-5.7c-4.5-3.7-6.6-8.3-6.6-14.1c0-2.6,0.8-7.7,4.9-17.7l13.1-32.4l1.3-3.3c3.3-7.7,7.9-11.3,14.5-11.3
		c2.6,0,4.6,0.8,6.3,2.4c1.6,1.6,2.4,3.4,2.4,5.9c0,1-0.4,3.7-2.8,9.9l-11.8,28.7c-2.6,6.6-3.1,8.9-3.1,10.1
		c-0.2,3.4,1.1,5.5,2.2,6.7c1.9,2,4.9,3.1,8.9,3.1c4.3,0,8.7-1.3,13.1-3.7c4.6-2.6,7.6-5.7,8.9-9.1l16.2-39.4l1.1-3.2
		c3.2-7.7,7.8-11.3,14.5-11.3c2.6,0,4.6,0.8,6.3,2.4c1.6,1.6,2.4,3.4,2.4,5.8C523.9,285.3,523.4,287.6,522.4,290z"/>
</g>
</svg>
